A young woman, after witnessing her parents' murder as a child in Bogota, grows up to be a stone-cold assassin. 

IMDB rating: 5.9/10 (from 5,776 users)

SOURCE: Colombiana.2011.DvD.Ro.PAL-GoldenDvD

SAMPLE INCLUDED:30s/3.7mb

CAST:

Zoe Saldana..................Cataleya
Jordi Mollà..................Marco
Lennie James.................Ross
Amandla Stenberg.............Cat - 10
Michael Varta................Danny Delanay
Cliff Curtis.................Emilio Restrepo
Beto Benites.................Don Luis
Jesse Borrego................Fabio
Cynthia Addai-Robinson.......Alicia
Angel Garnica................Pepe
Ofelia Medina................Mama
Callum Blue..................Richard
Sam Douglas..................William Woogard
Graham McTavish..............Head Marshall Warren
Charles Maquignon............Sergeant Bill Attwood 

General
*******
Format                           : Matroska
File size                        : 796 MiB
Duration                         : 1h 47mn
Overall bit rate                 : 1 032 Kbps
Encoded date                     : UTC 2011-10-11 00:52:42
Writing application              : mkvmerge v5.0.0 ('Die Wahre Liebe') built on Sep 25 2011 20:33:49
Writing library                  : libebml v1.2.2 + libmatroska v1.3.0

Video
*****
ID                               : 1
Format                           : AVC
Format/Info                      : Advanced Video Codec
Format profile                   : Main@L2.2
Format settings, CABAC           : Yes
Format settings, ReFrames        : 4 frames
Muxing mode                      : Container profile=Unknown@2.2
Codec ID                         : V_MPEG4/ISO/AVC
Duration                         : 1h 47mn
Bit rate                         : 884 Kbps
Nominal bit rate                 : 903 Kbps
Width                            : 720 pixels
Height                           : 288 pixels
Display aspect ratio             : 2.500
Frame rate                       : 23.976 fps
Resolution                       : 8 bits
Colorimetry                      : 4:2:0
Scan type                        : Progressive
Bits/(Pixel*Frame)               : 0.178
Stream size                      : 681 MiB (86%)
Writing library                  : x264 core 112


Audio
*****
ID                               : 2
Format                           : AC-3
Format/Info                      : Audio Coding 3
Codec ID                         : A_AC3
Duration                         : 1h 47mn
Bit rate mode                    : Constant
Bit rate                         : 128 Kbps
Channel(s)                       : 2 channels
Channel positions                : Front: L R
Sampling rate                    : 48.0 KHz
Stream size                      : 98.7 MiB (12%)

Text(subtitles)
***************
ID                               : 3
Format                           : UTF-8
Codec ID                         : S_TEXT/UTF8
Codec ID/Info                    : UTF-8 Plain Text
Language                         : Romanian
Language                         : Spanish
Language                         : Italian
Language                         : English

PLEASE SEED FOR AS LONG AS POSSIBLE!

